<svg width="1213" height="1156" viewBox="0 0 1213 1156" fill="none" xmlns="http://www.w3.org/2000/svg">
<rect width="1213" height="1156" fill="#D9D9D9" fill-opacity="0.01"/>
<mask id="path-2-inside-1_0_1" fill="white">
<path fill-rule="evenodd" clip-rule="evenodd" d="M540.205 831.745C502.916 840.2 463.067 844.774 421.667 844.774C212.535 844.774 43 728.045 43 584.052C43 471.876 145.891 376.246 290.239 339.462C335.424 247.421 464.298 181 616.227 181C802.624 181 954.318 280.977 959.338 405.586C1089.04 446.96 1179 537.385 1179 642.278C1179 786.271 1009.47 903 800.333 903C699.595 903 608.044 875.915 540.205 831.745Z"/>
</mask>
<path fill-rule="evenodd" clip-rule="evenodd" d="M540.205 831.745C502.916 840.2 463.067 844.774 421.667 844.774C212.535 844.774 43 728.045 43 584.052C43 471.876 145.891 376.246 290.239 339.462C335.424 247.421 464.298 181 616.227 181C802.624 181 954.318 280.977 959.338 405.586C1089.04 446.96 1179 537.385 1179 642.278C1179 786.271 1009.47 903 800.333 903C699.595 903 608.044 875.915 540.205 831.745Z" fill="white"/>
<path d="M540.205 831.745L562.03 798.224L547.855 788.994L531.36 792.735L540.205 831.745ZM290.239 339.462L300.117 378.223L318.009 373.664L326.146 357.089L290.239 339.462ZM959.338 405.586L919.37 407.196L920.498 435.182L947.181 443.694L959.338 405.586ZM531.36 792.735C497.015 800.522 460.134 804.774 421.667 804.774V884.774C466 884.774 508.817 879.877 549.05 870.754L531.36 792.735ZM421.667 804.774C324.161 804.774 237.637 777.495 176.593 735.465C115.376 693.315 83 639.112 83 584.052H3C3 672.985 55.391 749.143 131.225 801.356C207.231 853.689 310.04 884.774 421.667 884.774V804.774ZM83 584.052C83 498.689 163.6 413.011 300.117 378.223L280.362 300.701C128.183 339.48 3 445.062 3 584.052H83ZM326.146 357.089C362.11 283.83 472.917 221 616.227 221V141C455.679 141 308.739 211.011 254.333 321.835L326.146 357.089ZM616.227 221C702.65 221 779.331 244.244 833.86 280.011C888.684 315.973 917.538 361.718 919.37 407.196L999.306 403.976C996.118 324.845 946.615 258.297 877.738 213.118C808.565 167.745 716.201 141 616.227 141V221ZM947.181 443.694C1068.95 482.54 1139 562.428 1139 642.278H1219C1219 512.343 1109.12 411.38 971.495 367.478L947.181 443.694ZM1139 642.278C1139 697.337 1106.62 751.541 1045.41 793.69C984.363 835.721 897.839 863 800.333 863V943C911.96 943 1014.77 911.915 1090.78 859.582C1166.61 807.369 1219 731.211 1219 642.278H1139ZM800.333 863C706.435 863 622.654 837.696 562.03 798.224L518.379 865.265C593.435 914.134 692.754 943 800.333 943V863Z" fill="black" mask="url(#path-2-inside-1_0_1)"/>
<rect x="396" y="341" width="402" height="402" fill="#CC6A0F"/>
<rect x="396" y="341" width="402" height="402" fill="url(#paint0_radial_0_1)" fill-opacity="0.3"/>
<path fill-rule="evenodd" clip-rule="evenodd" d="M426 366C423.239 366 421 368.239 421 371L421 581C421 583.761 423.239 586 426 586H634C636.761 586 639 588.239 639 591V606C639 608.761 636.761 611 634 611H519.082C516.322 611 514.084 613.236 514.082 615.996L514.014 692.996C514.012 695.759 516.251 698 519.014 698H580C582.761 698 585 700.239 585 703V713C585 715.761 587.239 718 590 718H768C770.761 718 773 715.761 773 713L773 500C773 497.239 770.761 495 768 495H560C557.239 495 555 492.761 555 490V475C555 472.239 557.239 470 560 470H635.53C638.317 470 640.566 467.72 640.529 464.933L640.389 454.46C640.352 451.699 642.561 449.431 645.322 449.394L652.336 449.3C655.095 449.263 657.303 446.998 657.268 444.238L656.354 370.938C656.32 368.201 654.091 366 651.354 366H426ZM768 470C770.761 470 773 467.761 773 465V371C773 368.239 770.761 366 768 366H683.357C680.571 366 678.322 368.277 678.357 371.062L679.266 443.936C679.301 446.698 681.57 448.91 684.333 448.873L745.313 448.058C748.074 448.021 750.343 450.23 750.38 452.991L750.596 469.182C750.602 469.628 750.245 469.994 749.799 470V470H768ZM773 341H793C795.761 341 798 343.239 798 346V366V718V738C798 740.761 795.761 743 793 743H773H421H401C398.239 743 396 740.761 396 738L396 718V366L396 346C396 343.239 398.239 341 401 341H421H773ZM426 718C423.239 718 421 715.761 421 713V616C421 613.239 423.239 611 426 611H487.082C489.845 611 492.084 613.241 492.082 616.004L492.014 693.004C492.012 695.764 489.774 698 487.014 698H480C477.239 698 475 700.239 475 703V713C475 715.761 472.761 718 470 718H426Z" fill="black"/>
<path d="M396 718H402H396ZM396 366L390 366V366H396ZM492.014 693.004L486.014 692.999L492.014 693.004ZM492.082 616.004L486.082 615.999L492.082 616.004ZM750.596 469.182L744.596 469.262L750.596 469.182ZM749.799 470L749.719 464.001L749.799 476V470ZM745.313 448.058L745.393 454.057L745.313 448.058ZM679.266 443.936L685.266 443.861L679.266 443.936ZM684.333 448.873L684.253 442.873L684.333 448.873ZM678.357 371.062L672.357 371.137L678.357 371.062ZM656.354 370.938L650.354 371.012L656.354 370.938ZM657.268 444.238L651.269 444.313L657.268 444.238ZM640.389 454.46L634.39 454.54L640.389 454.46ZM645.322 449.394L645.402 455.393L645.322 449.394ZM640.529 464.933L646.529 464.853L640.529 464.933ZM773 500H767H773ZM773 713H767H773ZM514.082 615.996L520.082 616.001L514.082 615.996ZM421 371L415 371L421 371ZM427 581L427 371L415 371L415 581H427ZM634 580H426V592H634V580ZM645 606V591H633V606H645ZM519.082 617H634V605H519.082V617ZM520.014 693.001L520.082 616.001L508.082 615.99L508.014 692.99L520.014 693.001ZM580 692H519.014V704H580V692ZM591 713V703H579V713H591ZM768 712H590V724H768V712ZM779 713L779 500H767L767 713H779ZM560 501H768V489H560V501ZM549 475V490H561V475H549ZM635.53 464H560V476H635.53V464ZM634.39 454.54L634.53 465.013L646.529 464.853L646.389 454.38L634.39 454.54ZM652.255 443.301L645.242 443.394L645.402 455.393L652.416 455.3L652.255 443.301ZM650.354 371.012L651.269 444.313L663.268 444.163L662.353 370.863L650.354 371.012ZM426 372H651.354V360H426V372ZM779 465V371H767V465H779ZM683.357 372H768V360H683.357V372ZM685.266 443.861L684.357 370.988L672.357 371.137L673.267 444.01L685.266 443.861ZM745.233 442.059L684.253 442.873L684.413 454.872L745.393 454.057L745.233 442.059ZM756.595 469.102L756.379 452.911L744.38 453.071L744.596 469.262L756.595 469.102ZM768 464H749.799V476H768V464ZM773 347H793V335H773V347ZM792 346V366H804V346H792ZM792 366V718H804V366H792ZM792 718V738H804V718H792ZM793 737H773V749H793V737ZM421 749H773V737H421V749ZM401 749H421V737H401V749ZM390 718L390 738H402L402 718H390ZM390 366V718H402V366H390ZM390 346L390 366L402 366L402 346L390 346ZM421 335H401V347H421V335ZM773 335H421V347H773V335ZM415 616V713H427V616H415ZM487.082 605H426V617H487.082V605ZM498.014 693.01L498.082 616.01L486.082 615.999L486.014 692.999L498.014 693.01ZM480 704H487.014V692H480V704ZM481 713V703H469V713H481ZM426 724H470V712H426V724ZM469 713C469 712.448 469.448 712 470 712V724C476.075 724 481 719.075 481 713H469ZM480 692C473.925 692 469 696.925 469 703H481C481 703.552 480.552 704 480 704V692ZM486.014 692.999C486.015 692.447 486.462 692 487.014 692V704C493.085 704 498.009 699.081 498.014 693.01L486.014 692.999ZM487.082 617C486.529 617 486.081 616.552 486.082 615.999L498.082 616.01C498.087 609.931 493.161 605 487.082 605V617ZM415 713C415 719.075 419.925 724 426 724V712C426.552 712 427 712.448 427 713H415ZM427 616C427 616.552 426.552 617 426 617V605C419.925 605 415 609.925 415 616H427ZM402 346C402 346.552 401.552 347 401 347V335C394.925 335 390 339.925 390 346L402 346ZM401 737C401.552 737 402 737.448 402 738H390C390 744.075 394.925 749 401 749V737ZM792 738C792 737.448 792.448 737 793 737V749C799.075 749 804 744.075 804 738H792ZM744.596 469.262C744.558 466.394 746.852 464.039 749.719 464.001L749.879 475.999C753.639 475.949 756.646 472.861 756.595 469.102L744.596 469.262ZM745.393 454.057C744.841 454.065 744.387 453.623 744.38 453.071L756.379 452.911C756.298 446.836 751.308 441.977 745.233 442.059L745.393 454.057ZM673.267 444.01C673.343 450.089 678.335 454.953 684.413 454.872L684.253 442.873C684.805 442.866 685.259 443.308 685.266 443.861L673.267 444.01ZM683.357 360C677.228 360 672.281 365.009 672.357 371.137L684.357 370.988C684.363 371.545 683.914 372 683.357 372V360ZM779 371C779 364.925 774.075 360 768 360V372C767.448 372 767 371.552 767 371H779ZM767 465C767 464.448 767.448 464 768 464V476C774.075 476 779 471.075 779 465H767ZM662.353 370.863C662.278 364.842 657.376 360 651.354 360V372C650.807 372 650.361 371.56 650.354 371.012L662.353 370.863ZM652.416 455.3C658.487 455.219 663.344 450.234 663.268 444.163L651.269 444.313C651.262 443.761 651.704 443.308 652.255 443.301L652.416 455.3ZM646.389 454.38C646.396 454.932 645.954 455.386 645.402 455.393L645.242 443.394C639.167 443.476 634.309 448.466 634.39 454.54L646.389 454.38ZM635.53 476C641.662 476 646.611 470.985 646.529 464.853L634.53 465.013C634.522 464.456 634.972 464 635.53 464V476ZM561 475C561 475.552 560.552 476 560 476V464C553.925 464 549 468.925 549 475H561ZM560 489C560.552 489 561 489.448 561 490H549C549 496.075 553.925 501 560 501V489ZM779 500C779 493.925 774.075 489 768 489V501C767.448 501 767 500.552 767 500H779ZM768 724C774.075 724 779 719.075 779 713H767C767 712.448 767.448 712 768 712V724ZM579 713C579 719.075 583.925 724 590 724V712C590.552 712 591 712.448 591 713H579ZM580 704C579.448 704 579 703.552 579 703H591C591 696.925 586.075 692 580 692V704ZM508.014 692.99C508.009 699.069 512.935 704 519.014 704V692C519.567 692 520.015 692.448 520.014 693.001L508.014 692.99ZM519.082 605C513.011 605 508.087 609.919 508.082 615.99L520.082 616.001C520.081 616.553 519.634 617 519.082 617V605ZM633 606C633 605.448 633.448 605 634 605V617C640.075 617 645 612.075 645 606H633ZM634 592C633.448 592 633 591.552 633 591H645C645 584.925 640.075 580 634 580V592ZM793 347C792.448 347 792 346.552 792 346H804C804 339.925 799.075 335 793 335V347ZM427 371C427 371.552 426.552 372 426 372V360C419.925 360 415 364.925 415 371L427 371ZM415 581C415 587.075 419.925 592 426 592V580C426.552 580 427 580.448 427 581H415Z" fill="black"/>
<defs>
<radialGradient id="paint0_radial_0_1" cx="0" cy="0" r="1" gradientUnits="userSpaceOnUse" gradientTransform="translate(426 376) rotate(46.4962) scale(379.138 148.096)">
<stop/>
<stop offset="1" stop-opacity="0"/>
</radialGradient>
</defs>
</svg>
